<?xml version="1.0" standalone="no"?>
<!DOCTYPE svg PUBLIC "-//W3C//DTD SVG 20010904//EN"
 "http://www.w3.org/TR/2001/REC-SVG-20010904/DTD/svg10.dtd">
<svg version="1.0" xmlns="http://www.w3.org/2000/svg"
 width="512.000000pt" height="512.000000pt" viewBox="0 0 512.000000 512.000000"
 preserveAspectRatio="xMidYMid meet">
<metadata>
Created by potrace 1.14, written by Peter Selinger 2001-2017
</metadata>
<g transform="translate(0.000000,512.000000) scale(0.100000,-0.100000)"
fill="#000000" stroke="none">
<path d="M2524 5089 c-9 -18 -24 -47 -34 -63 -105 -190 -100 -184 -146 -190
-77 -10 -249 -48 -261 -57 -20 -17 -6 -36 143 -190 35 -36 62 -68 60 -70 -2
-2 -7 -31 -10 -64 -4 -33 -10 -80 -13 -105 -3 -25 -6 -67 -7 -95 -1 -40 2 -50
17 -53 10 -2 66 19 124 48 58 28 107 49 109 47 2 -2 -51 -79 -118 -173 -174
-240 -645 -887 -657 -901 -6 -7 -11 -21 -11 -31 0 -25 16 -27 213 -27 86 0
157 -2 157 -5 0 -3 -15 -28 -33 -55 -18 -28 -76 -120 -130 -205 -54 -85 -165
-258 -247 -385 -82 -126 -178 -275 -213 -330 -35 -55 -89 -139 -120 -186 -79
-123 -81 -121 156 -120 103 0 187 -2 187 -6 0 -3 -22 -35 -48 -72 -27 -36
-136 -190 -242 -341 -107 -151 -207 -294 -224 -316 -17 -23 -37 -50 -44 -60
-7 -11 -42 -59 -77 -109 -36 -49 -65 -97 -65 -106 0 -9 12 -21 28 -27 37 -15
167 -48 222 -57 25 -4 54 -9 65 -11 11 -2 38 -6 60 -9 22 -3 51 -7 65 -10 14
-2 50 -7 80 -10 30 -3 71 -7 90 -9 83 -10 262 -23 434 -30 65 -3 120 -7 122
-9 3 -2 7 -429 5 -513 l-1 -31 -176 1 c-193 1 -228 -6 -244 -49 -15 -39 -12
-54 15 -80 l24 -25 744 0 c738 0 745 0 771 21 44 35 33 101 -22 127 -9 4 -98
7 -198 7 l-181 -2 1 274 0 273 51 1 c94 0 378 16 450 24 22 2 72 7 110 10 85
8 304 34 325 40 8 2 34 7 58 10 24 3 76 15 115 25 135 34 145 43 110 98 -17
26 -123 176 -496 699 -103 144 -187 264 -187 267 0 2 83 4 184 3 141 -1 188 2
201 13 20 17 20 17 -61 142 -148 228 -197 303 -350 540 -295 459 -373 582
-369 588 2 3 74 4 162 3 181 -1 203 2 203 28 0 10 -165 245 -366 521 -202 277
-382 524 -400 549 l-33 46 110 -54 c115 -56 146 -63 156 -37 3 9 -2 81 -12
160 l-17 144 32 37 c18 21 66 73 107 116 40 43 73 82 73 86 0 21 -38 34 -170
60 -78 16 -145 32 -150 37 -5 5 -40 65 -78 134 -77 140 -98 156 -128 99z"/>
</g>
</svg>
